<svg width="21" height="21" viewBox="0 0 21 21" fill="none" xmlns="http://www.w3.org/2000/svg">
<path d="M16.3589 14.6168L20.6416 18.8995L19.2274 20.3137L14.9447 16.031C13.4048 17.263 11.4519 18 9.32788 18C4.35988 18 0.327881 13.968 0.327881 9C0.327881 4.032 4.35988 0 9.32788 0C14.2959 0 18.3279 4.032 18.3279 9C18.3279 11.124 17.5909 13.0769 16.3589 14.6168ZM14.3526 13.8748C15.5754 12.6146 16.3279 10.8956 16.3279 9C16.3279 5.1325 13.1954 2 9.32788 2C5.46038 2 2.32788 5.1325 2.32788 9C2.32788 12.8675 5.46038 16 9.32788 16C11.2235 16 12.9425 15.2475 14.2027 14.0247L14.3526 13.8748Z" fill="white" fill-opacity="0.5"/>
</svg>
